# xmcd
#
# Track frame offsets:
#	150
#	13853
#	31666
#	42373
#	59602
#	71139
#	84962
#	94945
#	104684
#	120258
#	130669
#	146634
#	166420
#	188794
#	196115
#
# Disc length: 2790 seconds
#
# Revision: 0
# Processed by: cddbd v1.5.2PL0 Copyright (c) Steve Scherf et al.
# Submitted via: dBpowerAMP V4.0
#
DISCID=cb0ae40f
DTITLE=Orchard Boys - I Don't Miss Trains
DYEAR=2006
DGENRE=Bluegrass
TTITLE0=Lonesome Fugitive
TTITLE1=2:10 Train
TTITLE2=Biding My Time
TTITLE3=Cumberland Blues
TTITLE4=Old Holter Jamboree
TTITLE5=Dan O'Malley
TTITLE6=Big River
TTITLE7=Dixie Lily
TTITLE8=Hey Angela
TTITLE9=I Don't Miss Trains
TTITLE10=I'm Always Looking For A Mountain
TTITLE11=Call His Name
TTITLE12=Over The Rainbow
TTITLE13=Stay On The Right Side
TTITLE14=Eigh
EXTD=
EXTT0=
EXTT1=
EXTT2=
EXTT3=
EXTT4=
EXTT5=
EXTT6=
EXTT7=
EXTT8=
EXTT9=
EXTT10=
EXTT11=
EXTT12=
EXTT13=
EXTT14=
PLAYORDER=
